# xmcd CD database file
#
# Track frame offsets:
#	150
#	11897
#	25657
#	39785
#	53462
#	65640
#	77062
#	90070
#	104875
#	119110
#	130875
#	143140
#	154800
#	167825
#	179895
#
# Disc length: 2577 seconds
#
# Revision: 0
# Processed by: cddbd v1.4PL0 Copyright (c) Steve Scherf et al.
# Submitted via: CDex 1.51
#
DISCID=ca0a0f0f
DTITLE=Celia Cruz - ¡¡Assucarr!! Lo más sabroso (30 éxitos) cd1
DYEAR=1998
DGENRE=Salsa
TTITLE0=Mi Bomba sonó
TTITLE1=Con mucho Cachet
TTITLE2=Me voy pa' el pueblo
TTITLE3=Cao, cao, maní picao
TTITLE4=Tuya, y más que tuya
TTITLE5=Pegao
TTITLE6=Ven Bernabe
TTITLE7=El Pai y la Mai
TTITLE8=Madre Rumba
TTITLE9=La Negrita Sandunguera
TTITLE10=Chango ta veni
TTITLE11=La Guagua
TTITLE12=Reina Rumba
TTITLE13=Burundanga
TTITLE14=Elegua quiere-tambo
EXTD=YEAR: 1998
EXTT0=
EXTT1=
EXTT2=
EXTT3=
EXTT4=
EXTT5=
EXTT6=
EXTT7=
EXTT8=
EXTT9=
EXTT10=
EXTT11=
EXTT12=
EXTT13=
EXTT14=
PLAYORDER=
